<svg width="273" height="160" viewBox="0 0 273 160" fill="none" xmlns="http://www.w3.org/2000/svg">
<g clip-path="url(#clip0)" filter="url(#filter0_dd)">
<rect x="15.6639" y="5.5108" width="241.672" height="129.081" rx="5" fill="url(#paint0_radial)"/>
<mask id="path-2-inside-1" fill="white">
<path fill-rule="evenodd" clip-rule="evenodd" d="M177.23 148.36L284.479 86.4398L264.29 51.4716L242.267 64.1868L177.23 148.36ZM225.465 73.8873L119.075 135.312L139.264 170.28L160.428 158.06L225.465 73.8873Z"/>
</mask>
<path d="M284.479 86.4398L285.115 87.5411L286.216 86.9053L285.58 85.804L284.479 86.4398ZM177.23 148.36L176.224 147.582L177.866 149.461L177.23 148.36ZM264.29 51.4716L265.391 50.8358L264.756 49.7345L263.654 50.3703L264.29 51.4716ZM242.267 64.1868L241.631 63.0856L241.414 63.2109L241.26 63.4094L242.267 64.1868ZM119.075 135.312L118.439 134.21L117.338 134.846L117.974 135.947L119.075 135.312ZM225.465 73.8873L226.471 74.6648L224.829 72.7861L225.465 73.8873ZM139.264 170.28L138.163 170.916L138.799 172.017L139.9 171.381L139.264 170.28ZM160.428 158.06L161.064 159.162L161.281 159.036L161.435 158.838L160.428 158.06ZM283.843 85.3386L176.594 147.259L177.866 149.461L285.115 87.5411L283.843 85.3386ZM263.189 52.1074L283.378 87.0757L285.58 85.804L265.391 50.8358L263.189 52.1074ZM242.902 65.2881L264.926 52.5729L263.654 50.3703L241.631 63.0856L242.902 65.2881ZM241.26 63.4094L176.224 147.582L178.236 149.137L243.273 64.9643L241.26 63.4094ZM119.711 136.413L226.101 74.9886L224.829 72.7861L118.439 134.21L119.711 136.413ZM140.365 169.644L120.176 134.676L117.974 135.947L138.163 170.916L140.365 169.644ZM159.793 156.959L138.628 169.179L139.9 171.381L161.064 159.162L159.793 156.959ZM161.435 158.838L226.471 74.6648L224.459 73.1098L159.422 157.283L161.435 158.838Z" fill="url(#paint1_radial)" mask="url(#path-2-inside-1)"/>
<mask id="path-4-inside-2" fill="white">
<path fill-rule="evenodd" clip-rule="evenodd" d="M47.3672 57.5073L136.924 5.80178L116.735 -29.1665L98.3446 -18.5488L47.3672 57.5073ZM84.3145 -10.4486L-4.52502 40.843L15.6639 75.8112L33.3371 65.6076L84.3145 -10.4486Z"/>
</mask>
<path d="M136.924 5.80178L137.56 6.90305L138.661 6.26723L138.025 5.16597L136.924 5.80178ZM47.3672 57.5073L46.3109 56.7993L48.003 58.6086L47.3672 57.5073ZM116.735 -29.1665L117.836 -29.8023L117.2 -30.9035L116.099 -30.2677L116.735 -29.1665ZM98.3446 -18.5488L97.7088 -19.6501L97.4529 -19.5023L97.2883 -19.2568L98.3446 -18.5488ZM-4.52502 40.843L-5.16084 39.7417L-6.2621 40.3775L-5.62629 41.4788L-4.52502 40.843ZM84.3145 -10.4486L85.3708 -9.74056L83.6787 -11.5498L84.3145 -10.4486ZM15.6639 75.8112L14.5626 76.447L15.1985 77.5483L16.2997 76.9125L15.6639 75.8112ZM33.3371 65.6076L33.9729 66.7089L34.2289 66.5611L34.3934 66.3156L33.3371 65.6076ZM136.288 4.70052L46.7314 56.4061L48.003 58.6086L137.56 6.90305L136.288 4.70052ZM115.634 -28.5306L135.823 6.4376L138.025 5.16597L117.836 -29.8023L115.634 -28.5306ZM98.9804 -17.4476L117.371 -28.0652L116.099 -30.2677L97.7088 -19.6501L98.9804 -17.4476ZM97.2883 -19.2568L46.3109 56.7993L48.4235 58.2153L99.4009 -17.8408L97.2883 -19.2568ZM-3.88921 41.9443L84.9504 -9.3473L83.6787 -11.5498L-5.16084 39.7417L-3.88921 41.9443ZM16.7652 75.1754L-3.42376 40.2072L-5.62629 41.4788L14.5626 76.447L16.7652 75.1754ZM32.7013 64.5063L15.0281 74.71L16.2997 76.9125L33.9729 66.7089L32.7013 64.5063ZM34.3934 66.3156L85.3708 -9.74056L83.2582 -11.1566L32.2808 64.8996L34.3934 66.3156Z" fill="url(#paint2_radial)" mask="url(#path-4-inside-2)"/>
<g clip-path="url(#clip1)">
<path d="M225.71 126.998V125.534C225.71 124.973 225.368 124.608 224.783 124.608C224.49 124.608 224.173 124.705 223.954 125.022C223.783 124.754 223.539 124.608 223.173 124.608C222.929 124.608 222.686 124.681 222.49 124.949V124.656H221.978V126.998H222.49V125.705C222.49 125.29 222.71 125.095 223.051 125.095C223.393 125.095 223.564 125.315 223.564 125.705V126.998H224.076V125.705C224.076 125.29 224.319 125.095 224.636 125.095C224.978 125.095 225.149 125.315 225.149 125.705V126.998H225.71V126.998ZM233.294 124.656H232.465V123.949H231.953V124.656H231.489V125.12H231.953V126.193C231.953 126.729 232.172 127.046 232.758 127.046C232.977 127.046 233.221 126.973 233.392 126.876L233.245 126.437C233.099 126.534 232.928 126.559 232.806 126.559C232.562 126.559 232.465 126.412 232.465 126.168V125.12H233.294V124.656V124.656ZM237.635 124.607C237.342 124.607 237.147 124.754 237.025 124.949V124.656H236.513V126.998H237.025V125.681C237.025 125.29 237.196 125.071 237.513 125.071C237.611 125.071 237.733 125.095 237.83 125.12L237.976 124.632C237.879 124.608 237.733 124.608 237.635 124.608V124.607ZM231.075 124.851C230.831 124.681 230.49 124.608 230.124 124.608C229.538 124.608 229.148 124.9 229.148 125.364C229.148 125.754 229.441 125.973 229.953 126.046L230.197 126.071C230.465 126.12 230.611 126.193 230.611 126.315C230.611 126.485 230.416 126.607 230.075 126.607C229.734 126.607 229.465 126.485 229.294 126.364L229.051 126.754C229.319 126.949 229.685 127.046 230.05 127.046C230.733 127.046 231.124 126.729 231.124 126.29C231.124 125.876 230.807 125.656 230.319 125.583L230.075 125.559C229.855 125.534 229.685 125.486 229.685 125.339C229.685 125.168 229.855 125.071 230.124 125.071C230.416 125.071 230.709 125.193 230.855 125.266L231.075 124.851V124.851ZM244.683 124.608C244.39 124.608 244.195 124.754 244.073 124.949V124.656H243.561V126.998H244.073V125.681C244.073 125.29 244.244 125.071 244.561 125.071C244.659 125.071 244.781 125.095 244.878 125.12L245.024 124.632C244.927 124.608 244.781 124.608 244.683 124.608V124.608ZM238.147 125.827C238.147 126.534 238.635 127.046 239.391 127.046C239.732 127.046 239.976 126.973 240.22 126.778L239.976 126.364C239.781 126.51 239.586 126.583 239.367 126.583C238.952 126.583 238.659 126.29 238.659 125.827C238.659 125.388 238.952 125.095 239.367 125.071C239.586 125.071 239.781 125.144 239.976 125.29L240.22 124.876C239.976 124.681 239.732 124.608 239.391 124.608C238.635 124.608 238.147 125.12 238.147 125.827ZM242.878 125.827V124.656H242.366V124.949C242.196 124.73 241.952 124.608 241.635 124.608C240.976 124.608 240.464 125.12 240.464 125.827C240.464 126.534 240.976 127.046 241.635 127.046C241.976 127.046 242.22 126.924 242.366 126.705V126.998H242.878V125.827V125.827ZM241.001 125.827C241.001 125.412 241.269 125.071 241.708 125.071C242.122 125.071 242.415 125.388 242.415 125.827C242.415 126.242 242.122 126.583 241.708 126.583C241.269 126.558 241.001 126.242 241.001 125.827V125.827ZM234.879 124.608C234.196 124.608 233.709 125.095 233.709 125.827C233.709 126.559 234.196 127.046 234.904 127.046C235.245 127.046 235.587 126.949 235.855 126.729L235.611 126.364C235.416 126.51 235.172 126.607 234.928 126.607C234.611 126.607 234.294 126.461 234.221 126.046H235.952V125.851C235.977 125.095 235.538 124.608 234.879 124.608H234.879ZM234.879 125.047C235.196 125.047 235.416 125.242 235.465 125.608H234.245C234.294 125.29 234.513 125.047 234.879 125.047ZM247.585 125.827V123.73H247.073V124.949C246.902 124.73 246.658 124.608 246.341 124.608C245.683 124.608 245.171 125.12 245.171 125.827C245.171 126.534 245.683 127.046 246.341 127.046C246.683 127.046 246.927 126.924 247.073 126.705V126.998H247.585V125.827V125.827ZM245.707 125.827C245.707 125.412 245.976 125.071 246.415 125.071C246.829 125.071 247.122 125.388 247.122 125.827C247.122 126.242 246.829 126.583 246.415 126.583C245.976 126.558 245.707 126.242 245.707 125.827V125.827ZM228.587 125.827V124.656H228.075V124.949C227.904 124.73 227.661 124.608 227.343 124.608C226.685 124.608 226.173 125.12 226.173 125.827C226.173 126.534 226.685 127.046 227.343 127.046C227.685 127.046 227.929 126.924 228.075 126.705V126.998H228.587V125.827V125.827ZM226.685 125.827C226.685 125.412 226.953 125.071 227.392 125.071C227.807 125.071 228.1 125.388 228.1 125.827C228.1 126.242 227.807 126.583 227.392 126.583C226.953 126.558 226.685 126.242 226.685 125.827V125.827Z" fill="white"/>
<path d="M230.904 106.878H238.586V120.681H230.904V106.878Z" fill="#FF5F00"/>
<path d="M231.392 113.779C231.392 110.975 232.709 108.487 234.733 106.878C233.245 105.707 231.368 105 229.319 105C224.466 105 220.539 108.926 220.539 113.779C220.539 118.633 224.466 122.559 229.319 122.559C231.367 122.559 233.245 121.852 234.733 120.681C232.709 119.096 231.392 116.584 231.392 113.779V113.779Z" fill="#EB001B"/>
<path d="M248.951 113.779C248.951 118.633 245.025 122.559 240.171 122.559C238.123 122.559 236.245 121.852 234.757 120.681C236.806 119.072 238.099 116.584 238.099 113.779C238.099 110.975 236.782 108.487 234.757 106.878C236.245 105.707 238.123 105 240.171 105C245.025 105 248.951 108.951 248.951 113.779H248.951Z" fill="#F79E1B"/>
</g>
<path d="M25.5856 57.9109V45.3214C25.5856 44.0625 26.6156 43.0324 27.8746 43.0324H45.042C46.301 43.0324 47.331 44.0625 47.331 45.3214V57.9109C47.331 59.1699 46.301 60.1999 45.042 60.1999H27.8746C26.6156 60.1999 25.5856 59.1699 25.5856 57.9109Z" fill="#FF9800" fill-opacity="0.76"/>
<path d="M47.331 49.8994V48.7549H40.464C39.8346 48.7549 39.3195 48.2399 39.3195 47.6104C39.3195 46.981 39.8346 46.4659 40.464 46.4659H41.0363V45.3214H40.464C39.2051 45.3214 38.175 46.3515 38.175 47.6104C38.175 48.8694 39.2051 49.8994 40.464 49.8994H42.1808V53.3329H40.464C38.8617 53.3329 37.6028 54.5919 37.6028 56.1942C37.6028 57.7965 38.8617 59.0554 40.464 59.0554H41.6085V57.9109H40.464C39.4912 57.9109 38.7473 57.167 38.7473 56.1942C38.7473 55.2213 39.4912 54.4774 40.464 54.4774H47.331V53.3329H43.3253V49.8994H47.331Z" fill="#FFD54F" fill-opacity="0.61"/>
<path d="M32.4526 53.3329H30.7358V49.8994H32.4526C33.7115 49.8994 34.7416 48.8694 34.7416 47.6104C34.7416 46.3515 33.7115 45.3214 32.4526 45.3214H30.7358V46.4659H32.4526C33.082 46.4659 33.5971 46.981 33.5971 47.6104C33.5971 48.2399 33.082 48.7549 32.4526 48.7549H25.5856V49.8994H29.5913V53.3329H25.5856V54.4774H32.4526C33.4254 54.4774 34.1693 55.2213 34.1693 56.1942C34.1693 57.167 33.4254 57.9109 32.4526 57.9109H31.3081V59.0554H32.4526C34.0549 59.0554 35.3138 57.7965 35.3138 56.1942C35.3138 54.5919 34.0549 53.3329 32.4526 53.3329Z" fill="#FFD54F" fill-opacity="0.61"/>
<g clip-path="url(#clip2)">
<path d="M231.207 23.3993C231.207 23.8282 230.866 24.1547 230.434 24.1547C230.111 24.1547 229.872 23.9719 229.872 23.6277C229.872 23.1988 230.206 22.8546 230.635 22.8546C230.962 22.8546 231.208 23.0551 231.208 23.3993H231.207ZM227.489 21.6949H227.323C227.271 21.6949 227.218 21.7304 227.211 21.7898L227.06 22.7287L227.348 22.7179C227.735 22.7179 228.033 22.6654 228.103 22.2188C228.184 21.7474 227.886 21.6949 227.489 21.6949V21.6949ZM237.471 21.6949H237.312C237.249 21.6949 237.207 21.7304 237.2 21.7898L237.052 22.7287L237.333 22.7179C237.79 22.7179 238.106 22.6123 238.106 22.0853C238.103 21.7127 237.769 21.6949 237.47 21.6949H237.471ZM244.904 17.136V29.5082C244.904 29.9556 244.726 30.3847 244.41 30.7011C244.093 31.0175 243.664 31.1953 243.217 31.1955H226.346C225.899 31.1953 225.469 31.0175 225.153 30.7011C224.837 30.3847 224.659 29.9556 224.659 29.5082V17.136C224.659 16.6886 224.837 16.2595 225.153 15.9431C225.469 15.6267 225.899 15.4489 226.346 15.4488H243.217C243.664 15.4489 244.093 15.6267 244.41 15.9431C244.726 16.2595 244.904 16.6886 244.904 17.136V17.136ZM229.169 21.8949C229.169 21.1565 228.599 20.9104 227.949 20.9104H226.543C226.498 20.9108 226.454 20.9278 226.421 20.9582C226.387 20.9887 226.365 21.0304 226.361 21.0756L225.784 24.664C225.773 24.7342 225.827 24.8044 225.897 24.8044H226.565C226.66 24.8044 226.748 24.7026 226.758 24.6039L226.917 23.6688C226.952 23.4158 227.38 23.5037 227.549 23.5037C228.555 23.5037 229.17 22.9065 229.17 21.8942L229.169 21.8949ZM232.128 22.2042H231.46C231.327 22.2042 231.32 22.3978 231.313 22.4927C231.109 22.1941 230.814 22.141 230.48 22.141C229.619 22.141 228.961 22.8963 228.961 23.7295C228.961 24.4147 229.39 24.8614 230.075 24.8614C230.392 24.8614 230.785 24.6893 231.007 24.4432C230.986 24.5143 230.974 24.5875 230.971 24.6614C230.971 24.7424 231.007 24.8019 231.084 24.8019H231.689C231.784 24.8019 231.865 24.7 231.882 24.6013L232.241 22.3415C232.252 22.2744 232.199 22.2042 232.128 22.2042V22.2042ZM233.552 25.6452L235.791 22.3902C235.809 22.3725 235.809 22.3548 235.809 22.3308C235.809 22.2713 235.756 22.208 235.696 22.208H235.021C234.989 22.2093 234.959 22.2179 234.931 22.2331C234.904 22.2484 234.88 22.2699 234.863 22.296L233.931 23.6669L233.545 22.3491C233.53 22.309 233.504 22.2742 233.47 22.2492C233.435 22.2241 233.394 22.21 233.351 22.2087H232.694C232.634 22.2087 232.581 22.2719 232.581 22.3314C232.581 22.3738 233.267 24.328 233.327 24.514C233.232 24.6475 232.606 25.5193 232.606 25.625C232.606 25.6882 232.659 25.7376 232.719 25.7376H233.394C233.425 25.7355 233.456 25.7262 233.483 25.7104C233.511 25.6946 233.534 25.6728 233.552 25.6465V25.6452ZM239.151 21.8949C239.151 21.1565 238.581 20.9104 237.931 20.9104H236.535C236.489 20.9101 236.443 20.9266 236.408 20.9569C236.372 20.9872 236.349 21.0294 236.342 21.0756L235.772 24.6608C235.766 24.731 235.818 24.8013 235.885 24.8013H236.606C236.676 24.8013 236.728 24.7487 236.746 24.6886L236.904 23.6694C236.94 23.4164 237.369 23.5043 237.537 23.5043C238.535 23.5043 239.15 22.9071 239.15 21.8949H239.151ZM242.11 22.2042H241.442C241.308 22.2042 241.301 22.3978 241.29 22.4927C241.097 22.1941 240.798 22.141 240.457 22.141C239.596 22.141 238.939 22.8963 238.939 23.7295C238.939 24.4147 239.368 24.8614 240.053 24.8614C240.38 24.8614 240.774 24.6893 240.984 24.4432C240.974 24.4957 240.949 24.6083 240.949 24.6614C240.949 24.7424 240.984 24.8019 241.061 24.8019H241.669C241.764 24.8019 241.845 24.7 241.863 24.6013L242.222 22.3415C242.233 22.2744 242.179 22.2042 242.109 22.2042H242.11ZM243.779 21.0338C243.779 20.9636 243.727 20.9111 243.667 20.9111H243.016C242.964 20.9111 242.911 20.9535 242.904 21.006L242.334 24.6614L242.324 24.6792C242.324 24.7424 242.377 24.8019 242.447 24.8019H243.027C243.115 24.8019 243.203 24.7 243.21 24.6013L243.779 21.0446V21.0338ZM240.616 22.8546C240.187 22.8546 239.853 23.1956 239.853 23.6277C239.853 23.9687 240.099 24.1547 240.422 24.1547C240.844 24.1547 241.185 23.8314 241.185 23.3993C241.189 23.0551 240.943 22.8546 240.616 22.8546V22.8546Z" fill="white"/>
</g>
</g>
<defs>
<filter id="filter0_dd" x="0.66394" y="0.510803" width="271.672" height="159.081" filterUnits="userSpaceOnUse" color-interpolation-filters="sRGB">
<feFlood flood-opacity="0" result="BackgroundImageFix"/>
<feColorMatrix in="SourceAlpha" type="matrix" values="0 0 0 0 0 0 0 0 0 0 0 0 0 0 0 0 0 0 127 0"/>
<feOffset dy="4"/>
<feGaussianBlur stdDeviation="3"/>
<feColorMatrix type="matrix" values="0 0 0 0 0 0 0 0 0 0 0 0 0 0 0 0 0 0 0.05 0"/>
<feBlend mode="normal" in2="BackgroundImageFix" result="effect1_dropShadow"/>
<feColorMatrix in="SourceAlpha" type="matrix" values="0 0 0 0 0 0 0 0 0 0 0 0 0 0 0 0 0 0 127 0"/>
<feOffset dy="10"/>
<feGaussianBlur stdDeviation="7.5"/>
<feColorMatrix type="matrix" values="0 0 0 0 0 0 0 0 0 0 0 0 0 0 0 0 0 0 0.1 0"/>
<feBlend mode="normal" in2="effect1_dropShadow" result="effect2_dropShadow"/>
<feBlend mode="normal" in="SourceGraphic" in2="effect2_dropShadow" result="shape"/>
</filter>
<radialGradient id="paint0_radial" cx="0" cy="0" r="1" gradientUnits="userSpaceOnUse" gradientTransform="translate(15.6639 5.5108) rotate(28.1073) scale(273.984 512.969)">
<stop stop-color="#782194"/>
<stop offset="1" stop-color="#B100E8"/>
</radialGradient>
<radialGradient id="paint1_radial" cx="0" cy="0" r="1" gradientUnits="userSpaceOnUse" gradientTransform="translate(294.806 36.8994) rotate(138.917) scale(202.159 368.744)">
<stop stop-color="#BEB3E9"/>
<stop offset="1" stop-color="#462DAF" stop-opacity="0.4"/>
</radialGradient>
<radialGradient id="paint2_radial" cx="0" cy="0" r="1" gradientUnits="userSpaceOnUse" gradientTransform="translate(142.434 -40.958) rotate(136.798) scale(170.159 365.822)">
<stop stop-color="#BEB4E9"/>
<stop offset="1" stop-color="#6044CF" stop-opacity="0.4"/>
</radialGradient>
<clipPath id="clip0">
<rect width="241.672" height="129.081" fill="white" transform="translate(15.6639 5.5108)"/>
</clipPath>
<clipPath id="clip1">
<rect width="28.4448" height="22.1074" fill="white" transform="translate(220.537 105)"/>
</clipPath>
<clipPath id="clip2">
<rect width="20.2449" height="20.2449" fill="white" transform="translate(224.659 13.2)"/>
</clipPath>
</defs>
</svg>
